<svg width="654" height="236" viewBox="0 0 654 236" fill="none" xmlns="http://www.w3.org/2000/svg">
<path d="M309.999 67.6367H275.489L252.699 111.128L240.979 113.189V21.6042H210.14V182.69H240.979V139.877L253.631 137.815L276.873 182.69H311.637L280.092 122.17L309.999 67.6367Z" fill="white"/>
<path d="M359.505 67.6367H328.666V182.69H359.505V67.6367Z" fill="white"/>
<path d="M451.542 67.6367C445.103 66.1117 438.58 65.3209 431.971 65.3209C417.399 65.3209 405.708 68.6251 396.868 75.2052C388.057 81.8135 383.623 92.4321 383.623 107.089C383.623 121.746 388.848 132.816 399.269 140.328L397.207 143.548C392.604 150.608 390.316 155.663 390.316 158.741C390.316 166.564 393.14 172.41 398.845 176.222C387.803 184.808 382.268 193.929 382.268 203.616C382.268 215.731 386.899 224.091 396.19 228.694C405.481 233.297 418.755 235.585 436.01 235.585C453.265 235.585 466.962 232.45 477.1 226.152C487.238 219.854 492.294 210.168 492.294 197.036C492.294 183.904 488.763 174.867 481.703 169.868C474.643 164.898 461.455 162.3 442.11 162.159C432.451 162.017 426.295 161.481 423.697 160.549C421.099 159.617 419.771 157.894 419.771 155.381C419.771 152.867 420.534 149.591 422.087 145.609C424.855 146.231 427.989 146.541 431.519 146.541C448.238 146.541 460.523 143.633 468.345 137.787C476.168 131.969 480.094 121.379 480.094 106.016C480.094 100.791 478.399 95.595 475.038 90.3705L492.294 91.7543V67.1283L455.242 68.2862L451.571 67.6084L451.542 67.6367ZM439.568 188.903C448.464 189.044 454.31 189.693 457.049 190.851C459.817 192.009 461.2 194.635 461.2 198.787C461.2 206.468 453.095 210.281 436.913 210.281C420.731 210.281 412.626 206.977 412.626 200.397C412.626 195.793 414.688 191.416 418.839 187.293L439.54 188.903H439.568ZM432.084 123.102C420.336 123.102 414.49 117.453 414.49 106.185C414.49 94.9173 420.364 89.2691 432.084 89.2691C443.804 89.2691 449.678 94.9173 449.678 106.185C449.678 117.453 443.804 123.102 432.084 123.102Z" fill="white"/>
<path d="M557.868 64.869C538.833 64.869 525.278 70.1218 517.145 80.6274C509.011 91.1329 504.944 105.903 504.944 124.937C504.944 165.293 522.595 185.457 557.868 185.457C593.14 185.457 610.791 165.293 610.791 124.937C610.791 105.903 606.724 91.1612 598.591 80.6274C590.458 70.1218 576.874 64.869 557.868 64.869ZM574.784 150.947C571.649 156.482 566.001 159.221 557.868 159.221C549.734 159.221 544.086 156.454 540.951 150.947C537.817 145.412 536.235 136.77 536.235 124.937C536.235 113.104 537.817 104.547 540.951 99.1533C544.086 93.7876 549.734 91.1047 557.868 91.1047C566.001 91.1047 571.649 93.7876 574.784 99.1533C577.919 104.519 579.5 113.104 579.5 124.937C579.5 136.77 577.919 145.412 574.784 150.947Z" fill="white"/>
<path d="M36.148 181.193H3.44529C1.54246 181.193 0 182.736 0 184.638V217.341C0 219.244 1.54246 220.787 3.44529 220.787H36.148C38.0508 220.787 39.5936 219.244 39.5936 217.341V184.638C39.5936 182.736 38.0508 181.193 36.148 181.193Z" fill="white"/>
<path d="M634.57 194.918H630.504V201.103H634.345C635.361 201.103 636.152 200.849 636.717 200.34C637.282 199.832 637.564 199.069 637.564 198.053C637.564 195.963 636.576 194.918 634.57 194.918Z" fill="white"/>
<path d="M649.651 181.193H616.948C615.028 181.193 613.503 182.746 613.503 184.638V217.341C613.503 219.262 615.028 220.787 616.948 220.787H649.651C651.571 220.787 653.097 219.262 653.097 217.341V184.638C653.097 182.718 651.543 181.193 649.651 181.193ZM639.626 204.859C639.795 205.141 639.993 205.565 640.219 206.073L642.647 211.665H637.225L634.909 206.384C634.712 205.932 634.486 205.593 634.175 205.395C633.893 205.198 633.441 205.113 632.876 205.113H630.504V211.665H625.336V190.908H635.7C638.157 190.908 639.936 191.557 641.122 192.856C642.28 194.156 642.873 195.878 642.873 198.053C642.873 199.437 642.535 200.651 641.8 201.724C641.094 202.769 640.134 203.56 638.92 204.096C639.202 204.322 639.456 204.605 639.626 204.887V204.859Z" fill="white"/>
<path d="M160.408 21.8019H3.16392C1.61068 21.8019 0.339844 23.0728 0.339844 24.626V149.281C0.339844 150.862 1.61068 152.105 3.16392 152.105H61.9328C63.5143 152.105 64.7569 153.376 64.7569 154.929V181.108C64.7569 182.69 66.0277 183.932 67.581 183.932H160.38C161.933 183.932 163.204 182.661 163.204 181.108V24.5977C163.204 23.0163 161.933 21.7737 160.38 21.7737L160.408 21.8019ZM130.671 148.575C130.671 150.128 129.4 151.399 127.847 151.399H68.3435C66.7903 151.399 65.5194 150.128 65.5194 148.575V124.683C65.5194 123.102 66.7903 121.859 68.3435 121.859H96.1323C97.7138 121.859 98.9564 120.588 98.9564 119.035V88.9303C98.9564 87.377 97.6856 86.1062 96.1323 86.1062H66.0279C64.4747 86.1062 63.2038 87.377 63.2038 88.9303V116.719C63.2038 118.301 61.933 119.543 60.3798 119.543H35.7818C34.2003 119.543 32.9577 118.272 32.9577 116.719V57.2159C32.9577 55.6344 34.2286 54.3918 35.7818 54.3918H127.847C129.4 54.3918 130.671 55.6626 130.671 57.2159V148.575Z" fill="white"/>
<path d="M330.728 0H362.019C363.826 0 365.323 1.46852 365.323 3.30417V34.5949C365.323 36.4024 363.854 37.8991 362.019 37.8991H330.728C328.921 37.8991 327.424 36.4306 327.424 34.5949V3.30417C327.424 1.49676 328.892 0 330.728 0Z" fill="white"/>
</svg>
